# xmcd CD database file
# Copyright (C) 1996 Ti Kan
#
# Track frame offsets:
# 	182
# 	18060
# 	29282
# 	43532
# 	60215
# 	85660
# 	103597
# 	122805
# 	134162
# 	154892
#
# Disc length: 2272 seconds
#
# Revision: 1
# Processed by: cddbd v1.4b41PL1 Copyright (c) Steve Scherf et al.
# Submitted via: DiscPlay 3.4.1
#
DISCID=7608de0a
DTITLE=Walt Mills - Moments Past
DYEAR=1900
DGENRE=
TTITLE0=Ain't Got Time For You Devil
TTITLE1=Running On With Victory
TTITLE2=Joy In My Heart
TTITLE3=I've Got a Feeling
TTITLE4=I Have
TTITLE5=Revival's In The Land Today
TTITLE6=What A Healing Jesus
TTITLE7=Holy Ghost Revival
TTITLE8=The Altar
TTITLE9=Hotel Hallelu
EXTD=
EXTT0=
EXTT1=
EXTT2=
EXTT3=
EXTT4=
EXTT5=
EXTT6=
EXTT7=
EXTT8=
EXTT9=
PLAYORDER=
